<?xml version="1.0" encoding="utf-8"?>
<!-- Generator: Adobe Illustrator 28.2.0, SVG Export Plug-In . SVG Version: 6.00 Build 0)  -->
<svg version="1.1" id="Layer_1" xmlns="http://www.w3.org/2000/svg" xmlns:xlink="http://www.w3.org/1999/xlink" x="0px" y="0px"
	 viewBox="0 0 156 50" style="enable-background:new 0 0 156 50;" xml:space="preserve">
<style type="text/css">
	.st0{fill:#FFFFFF;}
	.st1{fill:#DDBC00;}
	.st2{fill:#DABB26;}
</style>
<g>
	<g>
		<path class="st0" d="M52.1,107.8h-5.7v-21h5.7l5.4,7.7l5.4-7.7h5.7v21h-6V101c0-1.4,0-3,0.1-4.9h-0.1c-0.5,0.8-1.4,2.1-2.8,4
			l-2.5,3.5l-2.5-3.5c-0.9-1.3-1.8-2.6-2.8-4h-0.1c0,1.9,0.1,3.6,0.1,4.9L52.1,107.8L52.1,107.8z"/>
		<path class="st0" d="M71.2,97.3c0-3.1,1.1-5.7,3.3-7.8c2.2-2.1,5-3.1,8.5-3.1c2.1,0,4,0.4,5.8,1.2v5.9c-1.9-1.1-3.8-1.7-5.7-1.7
			c-1.8,0-3.2,0.5-4.3,1.5c-1.1,1-1.6,2.3-1.6,3.9s0.5,2.9,1.6,4s2.6,1.6,4.4,1.6c2,0,3.9-0.6,5.9-1.8v5.9c-1.8,0.8-3.8,1.2-6.1,1.2
			c-3.5,0-6.3-1-8.5-3.1C72.3,103,71.2,100.4,71.2,97.3z"/>
		<path class="st0" d="M90.1,107.8l8.5-21h5.9l8.5,21h-6.5l-1.5-4.3h-7.2l-1.5,4.3H90.1z M101.5,93.2L101.5,93.2
			c-0.4,1.3-0.9,2.6-1.4,3.9l-0.7,2h4.1l-0.7-2C102.4,96,102,94.7,101.5,93.2z"/>
		<path class="st0" d="M120.4,107.8h-5.7v-21h5.7l5.4,7.7l5.4-7.7h5.7v21h-6V101c0-1.4,0-3,0.1-4.9h-0.1c-0.5,0.8-1.4,2.1-2.8,4
			l-2.5,3.5l-2.5-3.5c-0.9-1.3-1.8-2.6-2.8-4h-0.1c0,1.9,0.1,3.6,0.1,4.9v6.8H120.4z"/>
		<path class="st0" d="M140.3,106.7v-5.6c1.2,0.7,2.4,1.2,3.7,1.6s2.4,0.5,3.2,0.5c1.4,0,2.1-0.5,2.1-1.5c0-0.3-0.1-0.5-0.2-0.7
			c-0.1-0.2-0.3-0.4-0.6-0.5c-0.3-0.1-0.6-0.3-0.9-0.3c-0.3-0.1-0.7-0.2-1.3-0.4s-1-0.3-1.4-0.4c-1.8-0.6-3.1-1.4-4-2.3
			s-1.4-2.2-1.4-3.8c0-2,0.7-3.6,2.2-4.9c1.4-1.2,3.3-1.8,5.7-1.8c2.5,0,4.8,0.5,6.8,1.5v5.5c-1.2-0.7-2.4-1.2-3.7-1.5
			c-1.3-0.4-2.3-0.6-3.1-0.6c-1.2,0-1.9,0.4-1.9,1.3c0,0.3,0.1,0.5,0.2,0.7c0.1,0.2,0.3,0.3,0.6,0.5c0.3,0.1,0.6,0.2,0.8,0.3
			c0.3,0.1,0.7,0.2,1.2,0.4c0.5,0.2,1,0.3,1.4,0.4c1.8,0.6,3.2,1.4,4.1,2.4c0.9,1,1.4,2.3,1.4,3.9c0,2.1-0.8,3.7-2.3,5
			c-1.5,1.2-3.5,1.8-5.9,1.8C144.6,108.1,142.4,107.6,140.3,106.7z"/>
	</g>
	<g>
		<g>
			<path class="st0" d="M46.2,116.9v-5.6h1.7c0.8,0,1.4,0.1,1.8,0.3c0.4,0.3,0.7,0.6,0.7,1.1s-0.3,0.9-0.8,1.1l0,0
				c0.7,0.2,1.1,0.7,1.1,1.4c0,0.7-0.3,1.1-1,1.4c-0.4,0.2-1,0.3-1.7,0.3H46.2z M47.7,113.5H48c0.5,0,0.7-0.2,0.7-0.5
				c0-0.2-0.1-0.3-0.2-0.4c-0.1-0.1-0.3-0.1-0.6-0.1h-0.2V113.5z M47.7,115.6H48c0.4,0,0.7,0,0.8-0.1s0.2-0.2,0.2-0.4
				c0-0.4-0.3-0.5-0.8-0.5h-0.5V115.6z"/>
			<path class="st0" d="M51.5,116c-0.3-0.4-0.4-1-0.4-1.8v-2.9h1.6v2.8c0,0.5,0.1,0.9,0.2,1.1c0.2,0.2,0.4,0.4,0.8,0.4
				c0.3,0,0.6-0.1,0.8-0.3c0.2-0.2,0.3-0.6,0.3-1.1v-2.8h1.5v2.9c0,0.8-0.2,1.4-0.5,1.8c-0.2,0.3-0.5,0.5-0.9,0.6
				c-0.4,0.2-0.8,0.2-1.2,0.2c-0.5,0-0.9-0.1-1.3-0.2C52,116.6,51.8,116.3,51.5,116z"/>
			<path class="st0" d="M57.1,116.9v-5.6h1.6v5.6H57.1z"/>
			<path class="st0" d="M59.5,116.9v-5.6h1.6v4.2h2.3v1.3L59.5,116.9L59.5,116.9z"/>
			<path class="st0" d="M64,116.9v-5.6h1.6c1.2,0,2,0.2,2.6,0.6c0.6,0.5,1,1.2,1,2.1c0,0.9-0.3,1.5-0.8,2c-0.6,0.5-1.5,0.8-2.7,0.8
				L64,116.9L64,116.9z M65.5,115.5L65.5,115.5c0.9,0,1.4-0.2,1.7-0.5c0.2-0.2,0.3-0.5,0.3-1s-0.2-0.9-0.5-1.1
				c-0.3-0.2-0.8-0.3-1.5-0.3h-0.1L65.5,115.5L65.5,115.5z"/>
			<path class="st0" d="M69.8,116.9v-5.6h1.6v5.6H69.8z"/>
			<path class="st0" d="M76.1,116.9l-1.5-2c-0.3-0.4-0.6-0.8-0.9-1.2l0,0c0,0.6,0,1.1,0,1.4v1.8h-1.5v-5.6h1.5l1.5,2
				c0.3,0.4,0.6,0.8,0.9,1.2l0,0c0-0.6,0-1.1,0-1.4v-1.8h1.5v5.6H76.1z"/>
			<path class="st0" d="M78.2,114.1c0-0.8,0.3-1.5,0.9-2.1c0.6-0.5,1.3-0.8,2.2-0.8c0.6,0,1.2,0.1,1.7,0.4v1.5
				c-0.6-0.3-1.1-0.5-1.6-0.5s-0.9,0.1-1.2,0.4c-0.3,0.3-0.4,0.6-0.4,1.1c0,0.4,0.1,0.8,0.4,1.1c0.3,0.3,0.7,0.4,1.1,0.4
				c0.1,0,0.2,0,0.3,0V115H81v-1.2h2.3v2.7c-0.6,0.3-1.2,0.4-1.9,0.4c-0.9,0-1.7-0.3-2.3-0.8C78.5,115.6,78.2,114.9,78.2,114.1z"/>
			<path class="st0" d="M85.9,116.6v-1.5c0.3,0.2,0.6,0.3,1,0.4c0.3,0.1,0.6,0.1,0.8,0.1c0.4,0,0.6-0.1,0.6-0.4c0-0.1,0-0.1,0-0.2
				c0-0.1-0.1-0.1-0.2-0.1s-0.2-0.1-0.2-0.1c-0.1,0-0.2-0.1-0.3-0.1c-0.1,0-0.3-0.1-0.4-0.1c-0.5-0.2-0.8-0.4-1.1-0.6
				c-0.2-0.2-0.4-0.6-0.4-1c0-0.5,0.2-1,0.6-1.3c0.4-0.3,0.9-0.5,1.5-0.5c0.7,0,1.3,0.1,1.8,0.4v1.5c-0.3-0.2-0.6-0.3-1-0.4
				c-0.3-0.1-0.6-0.1-0.8-0.1c-0.3,0-0.5,0.1-0.5,0.3c0,0.1,0,0.1,0,0.2c0,0,0.1,0.1,0.2,0.1s0.1,0.1,0.2,0.1s0.2,0.1,0.3,0.1
				c0.1,0,0.3,0.1,0.4,0.1c0.5,0.2,0.8,0.4,1.1,0.6c0.3,0.3,0.4,0.6,0.4,1c0,0.6-0.2,1-0.6,1.3c-0.4,0.3-0.9,0.5-1.6,0.5
				C87.1,116.9,86.5,116.8,85.9,116.6z"/>
			<path class="st0" d="M90.5,116.9v-5.6h3.6v1.3h-2v0.7h1.7v1.3h-1.7v0.9h2.1v1.3L90.5,116.9L90.5,116.9z"/>
			<path class="st0" d="M94.9,116.9v-5.6h1.9c0.7,0,1.2,0.1,1.6,0.3c0.6,0.3,0.9,0.8,0.9,1.4c0,0.7-0.3,1.2-1,1.5l1.5,2.3H98
				l-1.2-2.1h-0.2v2.1L94.9,116.9L94.9,116.9z M96.5,113.7h0.4c0.3,0,0.5,0,0.6-0.1s0.2-0.2,0.2-0.4c0-0.2-0.1-0.4-0.3-0.5
				c-0.1-0.1-0.4-0.1-0.7-0.1h-0.3v1.1H96.5z"/>
			<path class="st0" d="M101.7,116.9l-2.1-5.6h1.7l0.8,2.2c0.2,0.5,0.3,1,0.5,1.3l0,0c0.2-0.4,0.3-0.9,0.5-1.4l0.8-2.2h1.6l-2.1,5.6
				L101.7,116.9C101.7,116.8,101.7,116.9,101.7,116.9z"/>
			<path class="st0" d="M105.8,116.9v-5.6h1.6v5.6H105.8z"/>
			<path class="st0" d="M108,114.1c0-0.8,0.3-1.5,0.9-2.1c0.6-0.5,1.3-0.8,2.2-0.8c0.6,0,1.1,0.1,1.5,0.3v1.5
				c-0.5-0.3-1-0.5-1.5-0.5s-0.8,0.1-1.1,0.4c-0.3,0.3-0.4,0.6-0.4,1s0.1,0.8,0.4,1c0.3,0.3,0.7,0.4,1.2,0.4s1-0.2,1.5-0.5v1.6
				c-0.5,0.2-1,0.3-1.6,0.3c-0.9,0-1.7-0.3-2.2-0.8C108.3,115.6,108,114.9,108,114.1z"/>
			<path class="st0" d="M113.4,116.9v-5.6h3.6v1.3h-2v0.7h1.7v1.3H115v0.9h2.1v1.3L113.4,116.9L113.4,116.9z"/>
			<path class="st0" d="M117.9,116.6v-1.5c0.3,0.2,0.6,0.3,1,0.4c0.3,0.1,0.6,0.1,0.8,0.1c0.4,0,0.6-0.1,0.6-0.4c0-0.1,0-0.1,0-0.2
				c0-0.1-0.1-0.1-0.2-0.1s-0.2-0.1-0.2-0.1c-0.1,0-0.2-0.1-0.3-0.1c-0.1,0-0.3-0.1-0.4-0.1c-0.5-0.2-0.8-0.4-1.1-0.6
				c-0.2-0.2-0.4-0.6-0.4-1c0-0.5,0.2-1,0.6-1.3c0.4-0.3,0.9-0.5,1.5-0.5c0.7,0,1.3,0.1,1.8,0.4v1.5c-0.3-0.2-0.6-0.3-1-0.4
				c-0.3-0.1-0.6-0.1-0.8-0.1c-0.3,0-0.5,0.1-0.5,0.3c0,0.1,0,0.1,0,0.2c0,0,0.1,0.1,0.2,0.1s0.1,0.1,0.2,0.1s0.2,0.1,0.3,0.1
				c0.1,0,0.3,0.1,0.4,0.1c0.5,0.2,0.8,0.4,1.1,0.6c0.3,0.3,0.4,0.6,0.4,1c0,0.6-0.2,1-0.6,1.3c-0.4,0.3-0.9,0.5-1.6,0.5
				C119,116.9,118.4,116.8,117.9,116.6z"/>
			<path class="st0" d="M124.3,116.9v-5.6h1.6v4.2h2.3v1.3L124.3,116.9L124.3,116.9z"/>
			<path class="st0" d="M128.7,116.9v-5.6h1.6v5.6H128.7z"/>
			<path class="st0" d="M132.7,116.9h-1.5v-5.6h1.5l1.4,2l1.4-2h1.5v5.6h-1.6v-1.8c0-0.4,0-0.8,0-1.3l0,0c-0.1,0.2-0.4,0.6-0.7,1.1
				l-0.7,0.9l-0.7-0.9c-0.2-0.3-0.5-0.7-0.7-1.1l0,0c0,0.5,0,0.9,0,1.3L132.7,116.9L132.7,116.9z"/>
			<path class="st0" d="M137.9,116.9v-5.6h1.6v5.6H137.9z"/>
			<path class="st0" d="M141.7,116.9v-4.2H140v-1.3h5.1v1.3h-1.8v4.2H141.7z"/>
			<path class="st0" d="M145.6,116.9v-5.6h3.6v1.3h-2v0.7h1.7v1.3h-1.7v0.9h2.1v1.3L145.6,116.9L145.6,116.9z"/>
			<path class="st0" d="M150,116.9v-5.6h1.6c1.2,0,2,0.2,2.6,0.6c0.6,0.5,1,1.2,1,2.1c0,0.9-0.3,1.5-0.8,2c-0.6,0.5-1.5,0.8-2.7,0.8
				L150,116.9L150,116.9z M151.6,115.5L151.6,115.5c0.9,0,1.4-0.2,1.7-0.5c0.2-0.2,0.3-0.5,0.3-1s-0.2-0.9-0.5-1.1
				c-0.3-0.2-0.8-0.3-1.5-0.3h-0.1v2.9C151.5,115.5,151.6,115.5,151.6,115.5z"/>
		</g>
	</g>
	<g>
		<path class="st1" d="M41.4,116.7c-0.3-0.1-0.6-0.1-0.9-0.2c-0.7-0.2-1.5-0.4-2.2-0.5c-0.1,0-0.2-0.1-0.2-0.1
			c-7.3-1.6-13.8-1-13.8-1c-0.4,0-0.8,0-1.3,0c-0.3,0-0.3-0.1-0.3-0.3c0-7.7,0-15.5,0-23.2c0-0.2,0.1-0.3,0.3-0.4
			c2.5-0.6,4.9-1.3,7.4-1.9c0.1,0,0.3,0,0.4,0.1c1.2,0.7,2.3,1.4,3.5,2.2c0.1,0.1,0.2,0.1,0.4,0.2c0-0.9,0-1.8,0-2.7
			c0-0.2-0.1-0.3-0.2-0.4c-3.8-1.9-7.7-3.8-11.5-5.6c-0.1,0-0.2-0.1-0.3,0c-1.5,0.5-3,1.1-4.5,1.6c-0.1,0-0.2,0.1-0.3,0.2
			c-1.3,2.4-2.5,4.7-3.8,7.1c-0.3,0.6-0.7,1.3-1.1,2c-0.1-0.1-0.1-0.2-0.1-0.2c-1.5-1.8-3.1-3.6-4.6-5.4c-0.3-0.4-0.4-0.4-0.6-0.3
			c-1.4,0.5-2.8,1-4.2,1.5c-0.3,0.1-0.4,0.2-0.4,0.6c0,7.3,0,14.6,0,22c0,1.2,0,2.4,0,3.7c0,0.3-0.1,0.3-0.3,0.4
			c-0.6,0.1-1.3,0.3-1.9,0.4c-0.5,0.1-0.9,0.3-1.4,0.4v0.1c14.1-0.5,28.2-0.5,42.3,0C41.6,116.8,41.5,116.7,41.4,116.7z M16.5,114.8
			c-2.4,0.1-4.8,0.2-7.2,0.4v-13h0.1c1.2,1.6,2.3,3.1,3.5,4.8c1.2-2,2.3-4,3.6-6V114.8z"/>
		<path class="st0" d="M38,115.8c-7.3-1.6-13.8-1-13.8-1v-1.5c0-6.9,0-13.7,0-20.6c0-0.3,0.1-0.4,0.3-0.4c1.8-0.5,3.6-1,5.4-1.5
			c0.1,0,0.3,0,0.5,0c2.4,1.3,4.8,2.6,7.2,3.9c0.2,0.1,0.2,0.2,0.2,0.4v4.8v0.1c-2.5-1-5-2.1-7.6-3.1v13c2.5,0.2,5.1,0.3,7.7,0.5
			v3.2c0,0.7,0,1.3,0,2C38,115.7,38,115.8,38,115.8z"/>
		<path class="st1" d="M34,103.8c-0.3-0.1-0.7-0.2-1-0.3c-0.3-0.1-0.6-0.2-0.9-0.2c-0.1,0-0.2-0.1-0.2-0.2c0-1.1,0-2.3,0-3.4
			c0.3,0.1,0.6,0.2,0.9,0.3c0.4,0.1,0.8,0.3,1.1,0.4c0.1,0,0.2,0.1,0.2,0.2C34.1,101.6,34.1,102.6,34,103.8
			C34,103.7,34,103.7,34,103.8z"/>
		<path class="st1" d="M31.8,107.8c0-1.2,0-2.4,0-3.6c0.7,0.2,1.4,0.3,2.2,0.5c0,1.1,0,2.2,0,3.3C33.3,108,32.6,107.9,31.8,107.8z"
			/>
		<path class="st1" d="M34.7,104.8c0.7,0.2,1.3,0.3,2,0.5c0.1,0,0.2,0.1,0.2,0.2c0,0.9,0,1.9,0,2.8c0,0,0,0,0,0.1
			c-0.7-0.1-1.3-0.1-1.9-0.2c-0.1,0-0.2-0.1-0.2-0.1C34.6,107,34.7,105.9,34.7,104.8z"/>
		<path class="st1" d="M36.8,104.5c-0.7-0.2-1.4-0.3-2-0.5c-0.1,0-0.2-0.1-0.2-0.2c0-1,0-2,0-3.1c0.3,0.1,0.5,0.2,0.7,0.3
			c0.4,0.1,0.8,0.3,1.2,0.4c0.1,0,0.2,0.1,0.2,0.2C36.8,102.5,36.8,103.5,36.8,104.5z"/>
	</g>
</g>
<g>
	<path class="st0" d="M61.8,8.2L55.7,18l6,10.3h-8.3l-4.1-7.4v7.4h-7.2v-20h7.2v7.5l4.2-7.5H61.8z"/>
	<path class="st0" d="M82.6,28.3h-7.5l-0.7-2.6h-4.8l-0.7,2.6h-7.4l6.8-20h7.8L82.6,28.3z M73.2,20.8l-1.1-4.3l-1.2,4.3H73.2z"/>
	<path class="st0" d="M103.2,28.3h-7.4l-5.3-8.6v8.6h-7.2v-20h7.3l5.3,9.1V8.2h7.3V28.3z"/>
	<path class="st0" d="M124.9,28.3h-7.5l-0.7-2.6h-4.8l-0.7,2.6h-7.4l6.8-20h7.8L124.9,28.3z M115.5,20.8l-1.1-4.3l-1.2,4.3H115.5z"
		/>
	<path class="st0" d="M145.5,28.3h-7.4l-5.3-8.6v8.6h-7.2v-20h7.3l5.3,9.1V8.2h7.3V28.3z"/>
	<path class="st0" d="M154.8,28.3h-7.3v-20h7.3V28.3z"/>
</g>
<g>
	<g>
		<path class="st0" d="M50,41.8c-0.3,0.1-0.5,0.2-0.8,0.3c-0.6,0.2-1.2,0.2-1.6,0.2c-1.5,0-2.8-0.6-3.8-1.6c-1-1-1.5-2.3-1.5-3.7
			c0-1.5,0.5-2.8,1.5-3.8c1-1.1,2.4-1.6,4-1.6c0.8,0,1.5,0.1,2.3,0.5v3.3c-0.4-0.3-1-0.5-1.9-0.5c-0.6,0-1.1,0.2-1.4,0.5
			c-0.4,0.4-0.6,0.8-0.6,1.5c0,0.6,0.2,1.1,0.6,1.5s0.9,0.6,1.5,0.6c0.4,0,0.7-0.1,1.1-0.2c0.4-0.1,0.6-0.2,0.7-0.4V41.8z"/>
		<path class="st0" d="M61.5,37c0,1.6-0.5,2.9-1.6,3.9c-1.1,1-2.3,1.5-3.9,1.5c-1.5,0-2.7-0.6-3.8-1.6c-1-1.1-1.5-2.3-1.5-3.8
			c0-1.5,0.5-2.7,1.6-3.8c1-1,2.3-1.6,3.8-1.6c1.5,0,2.8,0.5,3.8,1.6C61,34.3,61.5,35.5,61.5,37z M57.9,36.9c0-0.5-0.2-1-0.5-1.4
			C57,35.2,56.6,35,56.1,35c-0.5,0-1,0.2-1.3,0.7c-0.3,0.4-0.5,0.9-0.5,1.4c0,0.5,0.2,1,0.5,1.4c0.3,0.4,0.8,0.6,1.3,0.6
			c0.5,0,0.9-0.2,1.3-0.7C57.7,38,57.9,37.5,57.9,36.9z"/>
		<path class="st0" d="M72.3,42h-3.7L66,37.7V42h-3.6V32H66l2.7,4.6V32h3.6V42z"/>
		<path class="st0" d="M81.2,38.6c0,1.2-0.5,2.1-1.4,2.8C79,42,78.1,42.3,77,42.3c-0.6,0-1.2-0.1-1.6-0.2c-0.7-0.2-1.4-0.5-2.2-1
			l0.8-2.6c0.4,0.3,0.7,0.5,0.9,0.7c0.7,0.4,1.3,0.6,1.9,0.6c0.2,0,0.4,0,0.6-0.1c0.2-0.1,0.3-0.3,0.3-0.5c0-0.4-0.3-0.6-0.9-0.6
			c-1.1-0.1-1.9-0.5-2.5-1c-0.6-0.5-0.9-1.2-0.9-2.1c0-1,0.5-1.9,1.4-2.6c0.9-0.7,1.8-1,2.9-0.9c1.4,0.1,2.5,0.4,3.3,0.9L80.1,35
			c0,0-0.2-0.2-0.7-0.3c-0.5-0.2-1-0.3-1.5-0.4c-0.2,0-0.4,0-0.6,0.1c-0.2,0.1-0.3,0.3-0.3,0.4c0,0.2,0.2,0.4,0.5,0.5
			c0.2,0.1,0.4,0.1,0.6,0.2c0.9,0.1,1.6,0.4,2.2,1C81,37.1,81.2,37.8,81.2,38.6z"/>
		<path class="st0" d="M89.7,35.1h-2.2v7h-3.5v-7h-2.1V32h7.8V35.1z"/>
		<path class="st0" d="M99.7,42h-4l-1.8-3.4V42h-3.5V32h5.2c1.1,0,1.9,0.2,2.6,0.6c0.8,0.5,1.2,1.3,1.2,2.4c0,0.7-0.2,1.3-0.5,1.8
			c-0.3,0.3-0.6,0.6-1,0.8c-0.4,0.2-0.5,0.2-0.6,0.2L99.7,42z M95.6,35.5c0-0.5-0.4-0.8-1-0.8h-0.8v1.7h0.8c0.3,0,0.5-0.1,0.7-0.2
			C95.5,36,95.6,35.8,95.6,35.5z"/>
		<path class="st0" d="M109.5,38.2c0,2.8-1.5,4.1-4.5,4.1c-1.6,0-2.8-0.4-3.5-1.2c-0.7-0.7-1.1-1.7-1.1-3V32h3.6v6.1
			c0,0.7,0.3,1,1,1c0.6,0,1-0.3,1-1V32h3.6V38.2z"/>
		<path class="st0" d="M118,41.8c-0.3,0.1-0.5,0.2-0.8,0.3c-0.6,0.2-1.2,0.2-1.6,0.2c-1.5,0-2.8-0.6-3.8-1.6c-1-1-1.5-2.3-1.5-3.7
			c0-1.5,0.5-2.8,1.5-3.8c1-1.1,2.4-1.6,4-1.6c0.8,0,1.5,0.1,2.3,0.5v3.3c-0.4-0.3-1-0.5-1.9-0.5c-0.6,0-1.1,0.2-1.4,0.5
			c-0.4,0.4-0.6,0.8-0.6,1.5c0,0.6,0.2,1.1,0.6,1.5s0.9,0.6,1.5,0.6c0.4,0,0.7-0.1,1.1-0.2c0.4-0.1,0.6-0.2,0.7-0.4V41.8z"/>
		<path class="st0" d="M126.5,35.1h-2.2v7h-3.5v-7h-2.1V32h7.8V35.1z"/>
		<path class="st0" d="M131.4,42h-3.6V32h3.6V42z"/>
		<path class="st0" d="M143.4,37c0,1.6-0.5,2.9-1.6,3.9c-1.1,1-2.3,1.5-3.9,1.5c-1.5,0-2.7-0.6-3.8-1.6c-1-1.1-1.5-2.3-1.5-3.8
			c0-1.5,0.5-2.7,1.6-3.8c1-1,2.3-1.6,3.8-1.6c1.5,0,2.8,0.5,3.8,1.6C142.8,34.3,143.4,35.5,143.4,37z M139.7,36.9
			c0-0.5-0.2-1-0.5-1.4c-0.3-0.4-0.7-0.6-1.2-0.6c-0.5,0-1,0.2-1.3,0.7c-0.3,0.4-0.5,0.9-0.5,1.4c0,0.5,0.2,1,0.5,1.4
			c0.3,0.4,0.8,0.6,1.3,0.6c0.5,0,0.9-0.2,1.3-0.7C139.6,38,139.7,37.5,139.7,36.9z"/>
		<path class="st0" d="M154.2,42h-3.7l-2.6-4.3V42h-3.6V32h3.7l2.7,4.6V32h3.6V42z"/>
	</g>
</g>
<g>
	<path class="st0" d="M15.6,7.4C16.5,8,17.4,8.5,18.3,9c2,1.1,4,2.3,6,3.4c2,1.1,3.9,2.2,5.9,3.3c0.3,0.2,0.4,0.4,0.4,0.7
		c0,0.5,0,1.1,0,1.6c0,0.3,0.1,0.5,0.4,0.7c0.8,0.4,1.6,0.9,2.3,1.3c0.9,0.5,1.8,1,2.7,1.5c0.3,0.2,0.4,0.4,0.4,0.7
		c0,3.4,0,6.9,0,10.3c0,3.1,0,6.2,0,9.2c0,0.1,0,0.2,0,0.3c0,0.4,0,0.4-0.4,0.4c-1.2,0-2.5,0-3.7,0c-1.1,0-1,0.1-1-1
		c0-0.1,0-0.2,0-0.3c0-0.3,0.1-0.4,0.4-0.4c0.5,0,1.1,0,1.6,0c0.5,0,1,0,1.6,0c0-0.2,0-0.4,0-0.5c0-5.8,0-11.5,0-17.3
		c0-0.3-0.1-0.5-0.4-0.7c-1.2-0.7-2.4-1.4-3.6-2.1c0,0-0.1,0-0.2-0.1c0,0.9,0,1.8,0,2.7c-0.4,0-3.8-1.8-4.2-2.2
		c0.4-0.2,0.7-0.4,1.1-0.6c0.4-0.2,0.7-0.4,1.1-0.6c0.3-0.2,0.5-0.4,0.4-0.7c0-0.5,0-1,0-1.4c0-0.4-0.1-0.6-0.4-0.7
		c-1-0.5-2-1.1-2.9-1.7c-1.7-1-3.4-2-5.2-2.9c-1.5-0.9-3-1.7-4.5-2.6c-0.1-0.1-0.2-0.1-0.4-0.2c0,0.2,0,0.4,0,0.6c0,1.7,0,3.3,0,5
		c0,0.6,0,0.6-0.6,0.8c-1.5,0.6-3,1.2-4.5,1.7c-0.2,0.1-0.4,0.2-0.5,0.5c-0.8,2-1.7,4-2.5,6c-0.3,0.7-0.6,1.4-0.9,2
		c0,0.1-0.1,0.1-0.2,0.2c0-0.1,0-0.3,0-0.4c0-4.2,0-8.3,0-12.5c0-0.4,0.1-0.7,0.5-0.9c2.3-1.3,4.5-2.5,6.7-3.8
		c0.6-0.4,1.2-0.7,1.8-1.1C15.4,7.4,15.5,7.4,15.6,7.4z"/>
	<path class="st2" d="M16.3,16.3c0.3,0.1,0.4,0.2,0.6,0.3c1.8,1,3.6,1.9,5.4,2.9c2.6,1.4,5.3,2.8,7.9,4.2c0.2,0.1,0.4,0.3,0.4,0.5
		c0,2.1,0,4.2,0,6.3c0,0.1,0,0.2-0.1,0.4c-0.5-0.2-1.1-0.3-1.6-0.5c-0.7-0.2-1.4-0.5-2.2-0.7c-0.5-0.2-0.5-0.2-0.5-0.7
		c0-0.6,0-1.2,0-1.8c0-0.2-0.1-0.4-0.3-0.5c-1.7-0.7-3.3-1.3-5-2c-0.1,0-0.2-0.1-0.4-0.1c0,0.1-0.1,0.3-0.1,0.4c0,3.6,0,7.1,0,10.7
		c0,0.7,0,0.7,0.8,0.8c1.5,0.2,2.9,0.4,4.4,0.6c0.2,0,0.3,0,0.6,0c0-0.8,0-1.6,0-2.5c0.2,0,0.4,0,0.5,0c1.2,0.2,2.3,0.5,3.5,0.7
		c0.3,0.1,0.4,0.2,0.4,0.4c0,2.1,0,4.2,0,6.3c0,0.4-0.1,0.4-0.5,0.4c-2.3,0-4.6,0-6.9,0c-2.1,0-4.2,0-6.4,0c-0.6,0-0.6,0-0.6-0.6
		c0-8.3,0-16.7,0-25C16.3,16.7,16.3,16.6,16.3,16.3z"/>
	<path class="st2" d="M15.5,16.4c0,0.2,0.1,0.4,0.1,0.6c0,1.8,0,3.7,0,5.5c0,0.5,0,0.5-0.5,0.7c-0.6,0.2-1.2,0.4-1.9,0.5
		c-0.2,0.1-0.4,0.2-0.5,0.4c-0.9,2-1.7,4.1-2.6,6.1c-0.1,0.3-0.1,0.5,0,0.8c0.9,1.6,1.7,3.3,2.6,4.9c0.1,0.2,0.2,0.3,0.5,0.3
		c0.7-0.1,1.3-0.1,2-0.2c0.3,0,0.4,0,0.4,0.3c0,0.2,0,0.5,0,0.7c0,1.7,0,3.3,0,5c0,0.5,0,0.5-0.5,0.5c-1.3,0-2.6,0-3.9,0
		c-0.3,0-0.5-0.1-0.7-0.4c-0.9-1.8-1.8-3.6-2.8-5.4c-0.4-0.7-0.8-1.4-1.2-2.2c-0.3-0.5-0.3-0.5-0.8-0.4c-0.1,0-0.1,0-0.2,0.1
		c0,0.2,0,0.4,0,0.5c0,2.4,0,4.8,0,7.2c0,0.6,0,0.6-0.6,0.6c-1.1,0-2.1,0-3.2,0c-0.5,0-0.5,0-0.5-0.5c0-2.2,0-4.3,0-6.5
		c0-4.4,0-8.7,0-13.1c0-0.6,0-0.6,0.6-0.9c1.1-0.4,2.1-0.8,3.2-1.2c0.1-0.1,0.3-0.1,0.5-0.1c0,2.8,0,5.5,0,8.2c0.6,0.1,0.8,0,1-0.5
		c1.4-3.1,2.7-6.3,4.1-9.4c0.1-0.3,0.3-0.4,0.5-0.5c1.4-0.5,2.7-1,4.1-1.5C15.2,16.4,15.3,16.4,15.5,16.4z"/>
</g>
</svg>
